<svg xmlns="http://www.w3.org/2000/svg" width="70" height="70" viewBox="0 0 70 70">
  <defs>
    <style>
      .cls-1 {
        fill: #fff;
      }
    </style>
  </defs>
  <path id="bx-search-alt-2" class="cls-1" d="M65.52,58q-2.58-2.471-5.019-5.083c-1.366-1.388-2.189-2.4-2.189-2.4L48.029,45.607a25.772,25.772,0,1,0-2.417,2.419l4.912,10.283s1.011.823,2.4,2.189c1.423,1.332,3.291,3.136,5.083,5.019l4.987,5.112L65.212,73,73,65.212l-2.373-2.218c-1.393-1.366-3.251-3.18-5.11-4.994ZM28.708,47.068A18.362,18.362,0,1,1,47.071,28.706,18.382,18.382,0,0,1,28.708,47.068Z" transform="translate(-3 -3)"/>
</svg>
